<?xml version="1.0" encoding="UTF-8"?>
<svg version="1.1" xmlns="http://www.w3.org/2000/svg" width="1070" height="1074">
<path d="M0 0 C1.71751465 0.25257568 1.71751465 0.25257568 3.46972656 0.51025391 C84.44174042 12.81771681 162.92585126 45.86026306 229 94 C229.88365234 94.64291992 229.88365234 94.64291992 230.78515625 95.29882812 C234.228524 97.81705009 237.62330933 100.39326902 241 103 C241.53753906 103.41282227 242.07507813 103.82564453 242.62890625 104.25097656 C255.74871198 114.34485899 268.2098479 125.09925898 280.29199219 136.40966797 C282.09379864 138.08733624 283.90898762 139.74959209 285.7265625 141.41015625 C293.37511222 148.42523114 300.60156797 155.66189581 307.53515625 163.38232422 C309.03862059 165.04265001 310.56233741 166.681844 312.09375 168.31640625 C318.35097117 174.9988468 324.28749892 181.84020418 330 189 C330.92091185 190.12969208 331.84284111 191.25855532 332.765625 192.38671875 C393.63990767 267.12406165 430.9225758 357.87475975 449.1875 524.3125 C449.18689575 525.41904938 449.1862915 526.52559875 449.18566895 527.66567993 C449.16070464 544.52739061 448.8311248 561.22266535 447 578 C446.87641113 579.17771973 446.75282227 580.35543945 446.62548828 581.56884766 C437.71176088 664.14777921 409.85958347 744.21284497 329.5078125 861.09375 C327.1292427 863.85022342 324.83969364 866.65962943 322.5625 869.5 C317.83939583 875.29311715 312.79977 880.75009186 307.68603516 886.19628906 C305.89870064 888.10836949 304.12640907 890.03366911 302.35546875 891.9609375 C295.07053871 899.85829235 287.59929601 907.3784254 279.6015625 914.55126953 C277.94741956 916.04756286 276.31519048 917.56483914 274.6875 919.08984375 C268.00514269 925.34748746 261.17705894 931.30751079 254 937 C252.94519216 937.84750649 251.89050975 938.69516912 250.8359375 939.54296875 C177.48027123 998.18040342 89.92311003 1036.38905496 -45 1055 C-46.41128174 1055.10586426 -46.41128174 1055.10586426 -47.85107422 1055.21386719 C-98.91612492 1058.81980576 -150.08833494 1053.81968796 -200 1043 C-201.23024902 1042.73348633 -202.46049805 1042.46697266 -203.72802734 1042.19238281 C-224.29104955 1037.62282232 -244.1522198 1030.97630095 -264 1024 C-265.57201172 1023.44892578 -265.57201172 1023.44892578 -267.17578125 1022.88671875 C-307.34489836 1008.62582993 -346.07656248 988.35896909 -381 964 C-381.84183838 963.41605469 -381.84183838 963.41605469 -382.70068359 962.8203125 C-411.3714697 942.86407582 -437.81754221 920.18603142 -462.5625 895.5625 C-463.20501709 894.92465576 -463.84753418 894.28681152 -464.50952148 893.62963867 C-468.3079242 889.81833816 -471.91334458 885.88676246 -475.43041992 881.81469727 C-477.37265646 879.56914676 -479.37182509 877.3787124 -481.375 875.1875 C-486.10233313 869.93579043 -490.5999471 864.52732593 -495 859 C-495.50660156 858.36594238 -496.01320313 857.73188477 -496.53515625 857.07861328 C-516.81325634 831.61713358 -534.36154884 804.53122006 -550 776 C-550.4429541 775.20062012 -550.8859082 774.40124023 -551.34228516 773.57763672 C-582.38151997 717.40174919 -601.09613434 653.53051437 -609 590 C-609.15098145 588.84854492 -609.30196289 587.69708984 -609.45751953 586.51074219 C-614.65744345 545.37132251 -614.54529967 501.08931803 -609 460 C-608.82839355 458.69756348 -608.65678711 457.39512695 -608.47998047 456.05322266 C-604.4300898 425.85412847 -598.03807869 396.1016007 -589 367 C-588.48614746 365.33493408 -588.48614746 365.33493408 -587.96191406 363.63623047 C-568.23950781 300.41608481 -535.88203922 239.62357551 -493 189 C-492.10765282 187.93394525 -491.21574952 186.86751885 -490.32421875 185.80078125 C-484.68557672 179.07344681 -478.91726935 172.48467873 -473 166 C-472.2059375 165.113125 -471.411875 164.22625 -470.59375 163.3125 C-464.994685 157.10630746 -459.21246897 151.10865032 -453.3125 145.1875 C-452.61189453 144.48230225 -451.91128906 143.77710449 -451.18945312 143.05053711 C-447.18235175 139.05521579 -443.07361667 135.23843919 -438.78833008 131.54321289 C-436.54990485 129.61159707 -434.36959834 127.61984297 -432.1875 125.625 C-426.93601708 120.8978709 -421.52989505 116.39653717 -416 112 C-415.34999023 111.48276367 -414.69998047 110.96552734 -414.03027344 110.43261719 C-348.88120898 58.77296049 -273.68434146 22.76562588 -118 -5 C-117.21367187 -5.05639648 -116.42734375 -5.11279297 -115.6171875 -5.17089844 C-77.05323061 -7.89552583 -38.19594657 -5.64518751 0 0 Z " fill="#0095D9" transform="translate(618,11)"/>
<path d="M0 0 C1 2 1 2 0.43740845 4.27127075 C0.11340057 5.22347504 -0.2106073 6.17567932 -0.54443359 7.15673828 C-0.91075897 8.2448732 -1.27708435 9.33300812 -1.6545105 10.45411682 C-2.06500641 11.6474614 -2.47550232 12.84080597 -2.8984375 14.0703125 C-3.31948761 15.31244003 -3.74053772 16.55456757 -4.17434692 17.83433533 C-5.32483909 21.22637399 -6.4851961 24.61496197 -7.6477356 28.00288773 C-8.62141769 30.84403149 -9.58957588 33.68704562 -10.5579567 36.52999973 C-17.0736102 55.65227656 -23.74032822 74.71830297 -30.52709961 93.74609375 C-36.20606538 109.68012971 -41.75355494 125.65791128 -47.2585144 141.65269089 C-47.9200741 143.57438145 -48.58226299 145.49585405 -49.24462891 147.41726685 C-54.0162131 161.2658945 -58.73664515 175.13096269 -63.37890625 189.0234375 C-63.98580544 190.83613632 -63.98580544 190.83613632 -64.60496521 192.68545532 C-68.55226755 204.5382183 -72.18233384 216.45641736 -75.5 228.5 C-77.25211026 234.86040025 -79.04386518 241.19741393 -81.0078125 247.49609375 C-88.3889957 271.2913518 -94.80809683 296.19584729 -97.640625 320.98046875 C-97.9779774 323.81496231 -98.45236393 326.57458826 -99 329.375 C-110.68947551 391.78023146 -101.70633216 461.91695614 -65.3984375 514.98974609 C-64.93695312 515.65312988 -64.47546875 516.31651367 -64 517 C-63.47148438 517.76006348 -62.94296875 518.52012695 -62.3984375 519.30322266 C-55.36030056 529.32011447 -47.96534318 538.66485842 -39.44555664 547.45776367 C-37.79433447 549.21942057 -36.22814317 551.04227449 -34.65625 552.875 C-30.97592391 557.10664826 -27.02946556 560.98157281 -22.9375 564.8125 C-22.20233154 565.5031958 -21.46716309 566.1938916 -20.7097168 566.90551758 C-15.05900346 572.15169467 -9.19419678 577.01352339 -3.05078125 581.66796875 C0.04388736 584.0335477 3.02399645 586.48802099 6 589 C0.55019279 590.8166024 -5.02392236 587.66711119 -10.3125 585.875 C-10.9746048 585.65269714 -11.63670959 585.43039429 -12.31887817 585.20135498 C-47.93662583 573.17895898 -82.53039463 556.55067473 -112 533 C-112.98355469 532.22011719 -113.96710938 531.44023438 -114.98046875 530.63671875 C-154.24591631 498.82486298 -180.65055217 454.9401348 -189 405 C-189.309375 403.25783203 -189.309375 403.25783203 -189.625 401.48046875 C-193.07108575 378.24332108 -191.79043901 353.23182395 -189 330 C-188.90348145 329.19175781 -188.80696289 328.38351562 -188.70751953 327.55078125 C-181.21350124 267.99240928 -154.85082214 210.46914023 -125 159 C-124.52900879 158.18128418 -124.05801758 157.36256836 -123.57275391 156.51904297 C-110.49064486 133.8486881 -95.69329265 111.94137428 -80 91 C-79.37673828 90.16710449 -78.75347656 89.33420898 -78.11132812 88.47607422 C-67.11586135 73.8252852 -55.76270803 59.50792418 -43.87280273 45.57348633 C-41.10292563 42.32474057 -38.4119535 39.02487454 -35.75 35.6875 C-29.56983905 28.09568358 -22.76950617 21.0630817 -16 14 C-14.65421875 12.59041016 -14.65421875 12.59041016 -13.28125 11.15234375 C-9.1252011 6.88954702 -4.97299349 3.28005953 0 0 Z " fill="#FDFEFE" transform="translate(663,427)"/>
<path d="M0 0 C-2.81633468 2.9931743 -5.66730276 5.22595291 -9.125 7.4375 C-17.62113701 13.00890621 -25.79562265 19.01063812 -34 25 C-34.79954102 25.58120605 -35.59908203 26.16241211 -36.42285156 26.76123047 C-45.93411144 33.6776412 -55.30374355 40.71637095 -64.4375 48.125 C-67.43238416 50.55381814 -70.46616051 52.9278821 -73.51318359 55.29077148 C-79.06736887 59.60223607 -84.39108175 64.0489891 -89.56640625 68.81640625 C-92.18167273 71.16300972 -94.8847429 73.36352825 -97.625 75.5625 C-101.62428295 78.79680056 -105.31601589 82.15270996 -108.85546875 85.8828125 C-110.64042683 87.64501155 -112.45133627 89.24828384 -114.359375 90.87109375 C-120.24087848 95.97894756 -125.68587851 101.53682573 -131.18188477 107.05151367 C-133.05829475 108.93328274 -134.93998969 110.80964738 -136.82226562 112.68554688 C-142.76256282 118.6225986 -148.5688164 124.58748105 -154 131 C-155.4132355 132.5448126 -156.82940409 134.08695325 -158.25 135.625 C-163.28082745 141.20726722 -167.87388348 147.08302455 -172.46386719 153.02685547 C-174.06611773 155.08492744 -175.69085589 157.12357082 -177.3203125 159.16015625 C-196.50547423 183.25869015 -212.1728009 209.52530917 -226 237 C-226.3707666 237.72687012 -226.7415332 238.45374023 -227.12353516 239.20263672 C-238.00479427 260.64771984 -245.89741163 283.78727439 -252 307 C-252.23412598 307.88026855 -252.46825195 308.76053711 -252.70947266 309.66748047 C-260.89681814 340.85875747 -264.22349881 372.94351689 -264.1875 405.125 C-264.18722809 406.04319519 -264.18695618 406.96139038 -264.18667603 407.90740967 C-264.16487039 424.00833866 -263.59144636 439.96765152 -262 456 C-261.89816406 457.02609375 -261.79632813 458.0521875 -261.69140625 459.109375 C-259.24468692 482.67037595 -254.56007883 505.80733989 -248.7878418 528.76098633 C-248.21301228 531.12425353 -247.66920585 533.4951292 -247.14379883 535.86987305 C-244.74178701 546.70779313 -241.45835387 557.08436193 -237.8125 567.5625 C-236.72667851 570.68579411 -235.65143411 573.81245797 -234.58203125 576.94140625 C-234.3372554 577.6342421 -234.09247955 578.32707794 -233.84028625 579.04090881 C-232.24813085 583.70166658 -231.47505869 588.09494193 -231 593 C-239.71729861 588.8966295 -245.17274803 581.43311183 -251 574 C-251.76054687 573.05511719 -252.52109375 572.11023438 -253.3046875 571.13671875 C-263.54059896 558.19919787 -272.5944017 544.31567041 -280.95385742 530.10327148 C-283.14822919 526.3797529 -285.45075874 522.76521089 -287.875 519.1875 C-325.60654069 462.96303028 -341.60364139 395.68475994 -328.73632812 328.56347656 C-322.98805439 300.74457621 -314.84691991 273.85866608 -303 248 C-302.55672363 247.02450195 -302.11344727 246.04900391 -301.65673828 245.04394531 C-285.88320148 210.55408865 -265.44079823 177.61004518 -240.52734375 148.9296875 C-238.03670312 146.04254613 -235.63817759 143.09713333 -233.25 140.125 C-230.22704044 136.40815826 -227.09560743 132.97458337 -223.65234375 129.6484375 C-221.97986984 127.97991743 -220.46303507 126.24075093 -218.9375 124.4375 C-211.62353078 115.96520986 -203.51062883 107.91437956 -194.96484375 100.6875 C-192.5404227 98.60529345 -190.21649968 96.42497793 -187.875 94.25 C-182.11957354 89.0084509 -176.08250132 84.21081017 -169.90966797 79.47265625 C-167.95191648 77.96292 -166.00858152 76.4359574 -164.06640625 74.90625 C-148.54509305 62.75840882 -132.13439827 51.74720958 -115 42 C-114.21109375 41.54947266 -113.4221875 41.09894531 -112.609375 40.63476562 C-83.81130412 24.29404207 -53.63274519 11.24279803 -21.35986328 3.56982422 C-18.22424108 2.81268143 -15.11493919 1.96259827 -12 1.125 C-7.86630447 0.09157612 -4.24908944 -0.28971064 0 0 Z " fill="#FDFEFE" transform="translate(666,406)"/>
<path d="M0 0 C1.4342432 0.00503243 2.86848815 0.00959221 4.30273438 0.01367188 C7.76435998 0.02452241 11.22591822 0.0416876 14.6875 0.0625 C13.6875 2.0625 13.6875 2.0625 11.09448242 3.10546875 C9.33648315 3.67201172 9.33648315 3.67201172 7.54296875 4.25 C6.8876416 4.46417068 6.23231445 4.67834137 5.55712891 4.89900208 C4.10663712 5.37272674 2.65510994 5.84328928 1.20272827 6.31118774 C-2.88163226 7.62948171 -6.95590546 8.97836259 -11.03125 10.32421875 C-11.91996292 10.61721359 -12.80867584 10.91020844 -13.72431946 11.21208191 C-69.32996622 29.58246134 -124.52094234 49.57954349 -177.3125 75.0625 C-178.47716797 75.62291992 -179.64183594 76.18333984 -180.84179688 76.76074219 C-196.51066074 84.3387279 -211.72924992 92.46228344 -226.63476562 101.45019531 C-229.13883453 102.95793338 -231.6533852 104.44620773 -234.171875 105.9296875 C-245.01130052 112.36613768 -255.222545 119.51262264 -265.3125 127.0625 C-265.91433105 127.50980469 -266.51616211 127.95710937 -267.13623047 128.41796875 C-299.90508473 152.83729265 -328.21165958 182.3213302 -348.3125 218.0625 C-348.7470752 218.8344873 -349.18165039 219.60647461 -349.62939453 220.40185547 C-360.72347735 240.33179394 -368.60554902 261.007034 -374.3125 283.0625 C-374.6525708 284.33359619 -374.6525708 284.33359619 -374.99951172 285.63037109 C-382.10864142 312.32639634 -383.52811292 339.37249703 -383.5 366.875 C-383.49939575 367.96376434 -383.4987915 369.05252869 -383.49816895 370.17428589 C-383.46296133 393.52659698 -382.20656445 416.13949482 -377.86132812 439.12988281 C-377.32290453 442.00690428 -376.8245359 444.88891438 -376.328125 447.7734375 C-373.82783974 461.53957686 -369.7008095 474.45166819 -364.88256836 487.55273438 C-364.64049149 488.22113342 -364.39841461 488.88953247 -364.14900208 489.57818604 C-363.48508878 491.40611063 -362.80766454 493.22911166 -362.12939453 495.05175781 C-361.3325469 497.98861524 -361.20635969 499.28393011 -362.3125 502.0625 C-393.72878499 474.38624894 -415.41052503 427.54963239 -428.40771484 388.75683594 C-429.18356165 386.44646214 -429.98569405 384.14826697 -430.80078125 381.8515625 C-436.89457565 363.85317286 -440.38173551 344.29867713 -440.55078125 325.2890625 C-440.5605751 324.37575668 -440.57036896 323.46245087 -440.58045959 322.52146912 C-441.15612988 254.89436099 -419.2389777 195.63144796 -373.421875 145.390625 C-371.55574433 143.33096967 -369.74180212 141.23861105 -367.9375 139.125 C-361.0002813 131.17375629 -353.36204831 123.87365627 -345.3125 117.0625 C-344.41660156 116.27746094 -343.52070313 115.49242187 -342.59765625 114.68359375 C-291.16885896 69.90205597 -226.39581248 41.40117313 -160.57470703 25.60791016 C-157.79704104 24.93822466 -155.02524297 24.24660287 -152.25415039 23.55029297 C-150.9529794 23.22340505 -149.65137781 22.89822663 -148.34936523 22.57470703 C-144.91690215 21.7215588 -141.49070446 20.84960713 -138.0703125 19.94921875 C-127.15631935 17.10638395 -116.16872635 14.71213328 -105.125 12.4375 C-104.41837219 12.29138275 -103.71174438 12.1452655 -102.98370361 11.99472046 C-88.52573543 9.01393192 -74.04267601 6.23247258 -59.375 4.5 C-58.36139404 4.37705566 -57.34778809 4.25411133 -56.3034668 4.12744141 C-53.3071542 3.76643989 -50.31005397 3.41302863 -47.3125 3.0625 C-46.44818359 2.96050293 -45.58386719 2.85850586 -44.69335938 2.75341797 C-39.57033973 2.15220577 -34.44729036 1.5547582 -29.3125 1.0625 C-28.37688232 0.97202393 -27.44126465 0.88154785 -26.47729492 0.78833008 C-17.64168968 0.01607514 -8.85872242 -0.05492014 0 0 Z " fill="#FDFEFE" transform="translate(640.3125,384.9375)"/>
<path d="M0 0 C3.32000776 0.32692767 6.64060829 0.64595356 9.96185303 0.96002197 C28.02299721 2.67241543 45.92956848 4.89354148 63.77288818 8.21539307 C64.70520264 8.38893311 65.63751709 8.56247314 66.5980835 8.74127197 C67.28998779 8.94671631 67.98189209 9.15216064 68.69476318 9.36383057 C69.02476318 10.02383057 69.35476318 10.68383057 69.69476318 11.36383057 C68.4838501 11.45358154 67.27293701 11.54333252 66.02532959 11.63580322 C40.36127105 13.55291525 14.73514557 15.74942664 -10.86773682 18.36383057 C-12.65555573 18.54283905 -12.65555573 18.54283905 -14.47949219 18.72546387 C-28.99701115 20.18555988 -43.38058558 22.02874425 -57.76959229 24.45391846 C-62.32114067 25.21862072 -66.87929013 25.87876107 -71.45487976 26.48204041 C-144.8291829 36.19156423 -212.88230037 63.9997533 -267.85211182 114.12945557 C-269.45544688 115.58981808 -271.06967423 117.03833416 -272.69586182 118.47320557 C-282.48162127 127.12255424 -291.98251759 136.28183735 -300.30523682 146.36383057 C-300.75834229 146.90845947 -301.21144775 147.45308838 -301.67828369 148.01422119 C-308.37823837 156.08289296 -314.86021753 164.24886072 -320.878479 172.84259033 C-321.97464026 174.38351923 -323.13408743 175.87909473 -324.30523682 177.36383057 C-324.96523682 177.36383057 -325.62523682 177.36383057 -326.30523682 177.36383057 C-323.16323088 127.58784185 -306.79542813 78.75069497 -269.30523682 44.36383057 C-200.44214069 -14.49273904 -98.97912979 -9.43486639 0 0 Z " fill="#FCFEFE" transform="translate(491.30523681640625,345.63616943359375)"/>
<path d="M0 0 C0.33 0 0.66 0 1 0 C0.85908107 3.31272776 0.71134606 6.62511971 0.5625 9.9375 C0.52318359 10.86369141 0.48386719 11.78988281 0.44335938 12.74414062 C0.21354347 17.78241249 -0.16793165 22.75304952 -0.76586914 27.76000977 C-1.19120512 31.82930867 -1.33024961 35.91341662 -1.5 40 C-1.57010111 41.68761931 -1.64300096 43.37512477 -1.71875 45.0625 C-1.76418945 46.16271484 -1.76418945 46.16271484 -1.81054688 47.28515625 C-1.97449423 49.63450499 -2.21330184 51.95175491 -2.48339844 54.29052734 C-4.77649323 74.50998944 -4.24178613 95.05450949 -4.25 115.375 C-4.25073643 116.20915184 -4.25147285 117.04330368 -4.2522316 117.90273285 C-4.27008457 142.73475668 -3.86343544 167.30704098 -1 192 C-0.75585878 194.35266266 -0.51360758 196.70552238 -0.2734375 199.05859375 C1.0227759 211.23620109 2.99708273 223.20284419 5.44091797 235.19824219 C6.05092452 238.2552008 6.62407268 241.31765437 7.19140625 244.3828125 C10.90135524 264.35697837 15.57754017 283.72557835 22 303 C22.48726562 304.48161621 22.48726562 304.48161621 22.984375 305.99316406 C47.3588798 379.82153822 86.72033702 438.16931974 156.29321289 474.76171875 C157.2805542 475.28507812 158.26789551 475.8084375 159.28515625 476.34765625 C160.17082275 476.81179932 161.05648926 477.27594238 161.96899414 477.75415039 C164 479 164 479 165 481 C124.80890307 483.92298887 81.7161683 449.66212101 53 425 C46.2078307 419.06560466 39.6875403 413.02435533 34 406 C33.16984375 405.00742187 32.3396875 404.01484375 31.484375 402.9921875 C8.54068884 375.12299098 -1.59577623 340.27104671 -11 306 C-11.2278418 305.17628906 -11.45568359 304.35257813 -11.69042969 303.50390625 C-16.44077213 285.99734923 -19.01058299 267.97145735 -21.68939209 250.05334473 C-21.9653736 248.22890573 -22.25627958 246.40673833 -22.54931641 244.58496094 C-26.06638104 221.14014642 -26.33696712 197.30854257 -26.26074219 173.64941406 C-26.24932676 170.08260316 -26.25616009 166.51609023 -26.26761913 162.94928932 C-26.33334107 138.81297651 -25.07413594 114.85015689 -22.1875 90.875 C-22.10418427 90.17484772 -22.02086853 89.47469543 -21.93502808 88.75332642 C-20.28798495 75.03309385 -17.95374617 61.50251605 -15 48 C-14.79761719 47.06913574 -14.59523438 46.13827148 -14.38671875 45.17919922 C-12.23095458 35.4035041 -9.74066193 25.73508032 -6.9375 16.125 C-6.70426025 15.31047363 -6.47102051 14.49594727 -6.23071289 13.65673828 C-4.72055369 8.64034692 -2.76209696 4.45499509 0 0 Z " fill="#FBFDFE" transform="translate(679,431)"/>
<path d="M0 0 C0.33 0 0.66 0 1 0 C0.37006772 6.11011514 -0.46363011 12.13061169 -1.5234375 18.1796875 C-1.67027985 19.03192902 -1.81712219 19.88417053 -1.96841431 20.76223755 C-2.43476246 23.46693345 -2.90461329 26.1710038 -3.375 28.875 C-9.71125379 65.40871645 -15.26919038 102.01781668 -18.80145264 138.93829346 C-18.98403055 140.83417397 -19.17356713 142.72938095 -19.36376953 144.62451172 C-23.19488566 184.04903757 -22.51868948 224.66916465 -18 264 C-17.84927755 265.37301049 -17.69889614 266.74605845 -17.54882812 268.11914062 C-16.41677355 278.29780058 -14.9429941 288.40020781 -13.25 298.5 C-13.11961334 299.27858368 -12.98922668 300.05716736 -12.85488892 300.85934448 C-5.34633924 345.3457875 8.55671255 389.94695182 35 427 C35.72832031 428.02351563 36.45664062 429.04703125 37.20703125 430.1015625 C56.8391927 456.91449651 79.85141941 475.18515916 109.45874023 489.97827148 C110.40821533 490.45852783 111.35769043 490.93878418 112.3359375 491.43359375 C113.18720215 491.85697021 114.0384668 492.28034668 114.91552734 492.71655273 C117 494 117 494 119 497 C84.17405551 498.95895938 54.30935983 477.52374458 29.51171875 455.37548828 C23.22713894 449.65725142 17.44254576 443.51814769 12 437 C11.16210938 436.01257813 10.32421875 435.02515625 9.4609375 434.0078125 C-11.07072983 409.37477876 -26.35421422 381.76082256 -38 352 C-38.51748813 350.72756296 -39.03560489 349.45538117 -39.5546875 348.18359375 C-42.23243116 341.27301929 -44.03737816 334.21211321 -45.6875 327 C-45.99167847 325.71210571 -45.99167847 325.71210571 -46.30200195 324.39819336 C-50.14103604 306.60078396 -50.40952432 288.132756 -50.375 270 C-50.37478851 268.95728943 -50.37457703 267.91457886 -50.37435913 266.840271 C-50.30487129 231.96923083 -46.55943364 197.39442375 -41 163 C-40.8246875 161.90768066 -40.649375 160.81536133 -40.46875 159.68994141 C-36.77825893 136.98116774 -32.03383444 114.44481674 -27 92 C-26.60941406 90.24913086 -26.60941406 90.24913086 -26.2109375 88.46289062 C-22.62116794 72.45151191 -18.64831871 56.65331401 -13.88378906 40.95166016 C-12.95620344 37.85372918 -12.06383561 34.74731257 -11.1796875 31.63671875 C-3.03542771 3.03542771 -3.03542771 3.03542771 0 0 Z " fill="#FBFDFE" transform="translate(653,475)"/>
<path d="M0 0 C7.06353241 -0.30002868 13.58124536 0.82121028 20.5 2.1875 C21.66055908 2.41526123 22.82111816 2.64302246 24.0168457 2.87768555 C32.17205405 4.52668948 40.01200239 6.49509356 47.86914062 9.25927734 C50.30425493 10.10576414 52.75269196 10.90599619 55.203125 11.70703125 C73.15089327 17.66014215 90.4979741 25.00669885 107.27148438 33.7421875 C120.05476829 39.63512583 138.00193998 37.9253464 151.68823242 36.23803711 C163.24017727 35.04856132 178.72430362 33.53529004 189 40 C190.29296875 42.140625 190.29296875 42.140625 191 44 C190.29037109 44.96486328 190.29037109 44.96486328 189.56640625 45.94921875 C185.8437658 51.0361017 182.21360668 56.14948811 178.6875 61.375 C165.95544634 79.7730363 150.23951554 94.85613384 128 101 C127.01 100.67 126.02 100.34 125 100 C127.31 92.74 129.62 85.48 132 78 C117.38746196 76.82577819 107.1225243 80.45099463 93.67431641 85.92724609 C81.50616895 90.8082795 67.97254474 94.03439358 55.25 89.25 C48.69111 86.13183918 42.554642 82.17575992 36.36669922 78.38818359 C23.90391577 70.80758165 11.96493967 66.59652494 -2.75390625 66.625 C-3.65315323 66.62661133 -4.55240021 66.62822266 -5.47889709 66.62988281 C-15.86630354 66.81343709 -25.80892915 68.84732879 -35.9375 71 C-38.7293796 71.57641301 -41.52232657 72.14694248 -44.31654358 72.71191406 C-46.03106004 73.06027231 -47.74411743 73.4159242 -49.45530701 73.78027344 C-53.71551804 74.66340632 -57.62007375 75.19671248 -62 75 C-58.38324162 71.06068442 -54.69276545 68.35497443 -49.9375 65.875 C-49.22070068 65.49883545 -48.50390137 65.1226709 -47.76538086 64.73510742 C-27.44754029 54.43472718 -5.0671469 46.63496982 17 41 C8.73180367 38.69559746 0.58341823 38.60176145 -7.9375 38.625 C-9.06189987 38.62581573 -9.06189987 38.62581573 -10.20901489 38.62664795 C-30.81752359 38.69497945 -50.37097937 42.32904894 -70.37280273 47.15673828 C-71.97877319 47.53741455 -71.97877319 47.53741455 -73.6171875 47.92578125 C-74.56190918 48.15692627 -75.50663086 48.38807129 -76.47998047 48.6262207 C-79.06786704 49.01006631 -80.52542359 48.70290266 -83 48 C-76.38565263 45.36265272 -69.76921589 42.73059972 -63.15136719 40.10205078 C-60.90479989 39.20903544 -58.65869655 38.31485193 -56.41308594 37.41943359 C-53.16725867 36.12543046 -49.91973245 34.83577269 -46.671875 33.546875 C-45.18986603 32.95444 -45.18986603 32.95444 -43.67791748 32.35003662 C-12.19702105 19.88699098 15.97030879 21.73723691 49 25 C44.52011327 18.04001535 39.67281398 13.84080425 32.0625 10.5625 C31.39734375 10.27173584 30.7321875 9.98097168 30.046875 9.68139648 C20.39828399 5.67527542 10.14105704 3.40063666 0 1 C0 0.67 0 0.34 0 0 Z " fill="#FBFDFE" transform="translate(554,207)"/>
<path d="M0 0 C1.00890289 -0.00358521 2.01780579 -0.00717041 3.05728149 -0.01086426 C64.20297651 -0.12777882 137.04710608 16.89344776 182.3125 60.6875 C187.92912533 66.42341649 192.28760561 73.7052881 192.59765625 81.890625 C192.58025391 83.21320313 192.58025391 83.21320313 192.5625 84.5625 C192.55347656 85.45453125 192.54445313 86.3465625 192.53515625 87.265625 C192.51775391 88.27882812 192.51775391 88.27882812 192.5 89.3125 C193.10585938 89.0959375 193.71171875 88.879375 194.3359375 88.65625 C200.58521903 86.57956568 205.93928877 85.7775497 212.5 86.3125 C213.31726563 86.37050781 214.13453125 86.42851562 214.9765625 86.48828125 C225.61139168 87.82165107 236.15947427 93.18632373 244.83203125 99.3359375 C249.77038354 102.70463717 254.89276783 104.4114508 260.5625 106.1875 C280.88532149 112.92438283 297.52300557 123.07962491 313.5 137.3125 C314.16773438 137.90675781 314.83546875 138.50101563 315.5234375 139.11328125 C325.18087783 148.24931048 332.3983771 159.60389414 338.5 171.3125 C338.96599609 172.18962646 338.96599609 172.18962646 339.44140625 173.08447266 C354.57228288 201.91385737 356.49455732 236.41382642 347.3125 267.375 C343.76874796 278.52869694 338.86014371 289.95235629 330.5 298.3125 C329.84 297.9825 329.18 297.6525 328.5 297.3125 C328.83209473 296.5690332 329.16418945 295.82556641 329.50634766 295.05957031 C347.33975389 254.91430272 352.30602062 224.18231798 336.61181641 182.10253906 C330.40005667 166.51448674 320.94364135 153.4910541 309.5 141.3125 C308.97277344 140.70921875 308.44554687 140.1059375 307.90234375 139.484375 C293.63663721 123.8687167 267.63227793 111.94245819 246.72265625 109.953125 C242.61300442 109.13617603 241.30193259 107.61319876 238.5625 104.5 C234.44851797 100.15057924 231.1266104 97.31519184 225.5 95.3125 C224.42685547 94.86970703 224.42685547 94.86970703 223.33203125 94.41796875 C207.85818017 89.0304117 192.08948407 91.36591741 177.703125 98.26953125 C176.98318359 98.62354004 176.26324219 98.97754883 175.52148438 99.34228516 C166.70474936 103.57389203 158.21314511 104.99917274 148.5 105.3125 C151.61676294 101.94548602 154.97873364 99.56728742 158.8125 97.0625 C165.95053943 92.25494369 172.59830639 86.67620512 175.5 78.3125 C176.74435748 71.74787943 175.02224059 67.19643133 171.37890625 61.71875 C149.95541354 34.28242669 105.7198575 23.4871202 73.23144531 17.80078125 C70.55189195 17.32177636 67.88183812 16.80615548 65.2109375 16.28125 C40.83447702 11.59406355 16.46167034 10.0390215 -8.3125 10 C-9.22309174 9.99641479 -10.13368347 9.99282959 -11.0718689 9.98913574 C-30.11934221 9.94866645 -48.79178788 11.72500246 -67.5 15.3125 C-68.50498535 15.50295898 -69.5099707 15.69341797 -70.54541016 15.88964844 C-119.24913637 25.2816313 -170.6670448 43.07929619 -208.5 76.3125 C-209.47195313 77.14007813 -210.44390625 77.96765625 -211.4453125 78.8203125 C-221.24881201 87.33123269 -229.13774154 97.007411 -235.5 108.3125 C-233.85354492 108.30464478 -233.85354492 108.30464478 -232.17382812 108.29663086 C-228.02133023 108.27824962 -223.86883575 108.26694963 -219.71630859 108.25756836 C-217.93407584 108.25260258 -216.15184701 108.24582772 -214.36962891 108.23706055 C-198.77873492 108.16239993 -183.45477101 108.28966846 -168.125 111.5 C-167.06498779 111.7170459 -166.00497559 111.9340918 -164.9128418 112.15771484 C-153.37948781 114.61591368 -141.97832056 117.80445591 -131.5 123.3125 C-131.5 123.6425 -131.5 123.9725 -131.5 124.3125 C-133.50019701 124.19069313 -135.50013771 124.06468422 -137.5 123.9375 C-138.17675781 123.89568604 -138.85351562 123.85387207 -139.55078125 123.81079102 C-143.44233342 123.55806477 -147.31209156 123.2374806 -151.1875 122.80078125 C-165.62205379 121.25461424 -179.99626133 121.09187744 -194.5 121.0625 C-195.51465332 121.05741425 -196.52930664 121.05232849 -197.57470703 121.04708862 C-212.96520061 120.98509534 -228.05549184 121.39708714 -243 125.5 C-243.78914795 125.71358154 -244.5782959 125.92716309 -245.39135742 126.1472168 C-262.68072463 131.0416779 -278.87836784 139.61186725 -292.5 151.3125 C-293.70730617 152.31373986 -294.91547648 153.31393989 -296.125 154.3125 C-297.300625 155.3025 -297.300625 155.3025 -298.5 156.3125 C-298.5 148.46927909 -290.26449034 140.3311507 -285.1328125 134.8515625 C-275.73146805 125.78498402 -264.52451149 117.29019762 -252.3046875 112.44140625 C-249.62963363 110.76805004 -248.71783783 108.57716543 -247.25 105.8125 C-220.43395982 58.3210675 -156.66358474 29.29456812 -106.5625 14.9375 C-95.9662797 12.01574808 -85.2497698 9.59328676 -74.5 7.3125 C-73.66065918 7.12945312 -72.82131836 6.94640625 -71.95654297 6.7578125 C-48.06365089 1.58874473 -24.37930095 0.03479634 0 0 Z " fill="#F6FBFD" transform="translate(562.5,112.6875)"/>
<path d="M0 0 C4.92133686 2.53831664 9.22688072 3.11321889 14.70922852 3.22631836 C27.50772259 3.84501483 38.80771566 9.11772472 50.19238281 14.61499023 C62.00251868 20.18532587 74.12119888 22.51452054 87.02172852 23.97631836 C111.73375577 26.81720904 111.73375577 26.81720904 118.77172852 34.91381836 C122.9840676 41.93438349 122.95419602 48.11474901 122.95922852 56.10131836 C122.97147461 57.10485352 122.9837207 58.10838867 122.99633789 59.14233398 C123.00852275 65.38504221 122.3586562 70.87345725 120.77172852 76.91381836 C118.43583864 73.40998354 118.03613058 70.28404441 117.39672852 66.22631836 C115.94822573 56.23410771 115.94822573 56.23410771 109.91235352 48.58959961 C103.82106586 45.3264098 97.8760849 44.76156815 91.04174805 44.61669922 C90.27816986 44.59704605 89.51459167 44.57739288 88.72787476 44.55714417 C86.20351603 44.49332806 83.67905767 44.43586217 81.15454102 44.37866211 C79.37831904 44.33555376 77.60210452 44.29213714 75.82589722 44.24842834 C72.09191764 44.15749208 68.35788313 44.06956525 64.6237793 43.98388672 C59.90698583 43.87553202 55.19037037 43.76095104 50.47377491 43.64433098 C26.90099019 43.04559622 26.90099019 43.04559622 3.32250977 42.82397461 C2.47870758 42.82332504 1.6349054 42.82267548 0.76553345 42.82200623 C-7.91260178 42.85863106 -16.57061102 43.34809025 -25.22827148 43.91381836 C-22.39174876 42.38070492 -19.76583963 41.44199356 -16.62670898 40.72241211 C-15.68102051 40.50407715 -14.73533203 40.28574219 -13.76098633 40.06079102 C-12.71894043 39.82666504 -11.67689453 39.59253906 -10.60327148 39.35131836 C-8.96092529 38.97692627 -8.96092529 38.97692627 -7.28540039 38.5949707 C10.69592102 34.53201193 28.73936313 30.74227546 46.77172852 26.91381836 C44.75703244 24.89912228 40.85987019 25.13125748 38.08813477 24.73803711 C29.46915783 23.44682043 20.95382378 21.77864738 12.42407227 19.99584961 C10.51593246 19.60041458 10.51593246 19.60041458 8.56924438 19.19699097 C3.28400187 18.10117378 -2.00069178 17.0034001 -7.27929688 15.87597656 C-22.05430037 12.72720079 -36.09660283 9.83815135 -51.22827148 10.91381836 C-52.75368896 10.99999418 -54.27916329 11.0851683 -55.8046875 11.16943359 C-60.5354387 11.45245243 -65.2557496 11.83131789 -69.97827148 12.22631836 C-71.21420044 12.32561142 -71.21420044 12.32561142 -72.47509766 12.4269104 C-83.14191101 13.28447949 -93.72036721 14.38533138 -104.30395508 15.99243164 C-111.32115514 17.02789481 -118.1301372 17.2408655 -125.22827148 16.91381836 C-123.0935708 14.77911767 -121.91756677 14.30548106 -119.10717773 13.36303711 C-118.26541992 13.07952393 -117.42366211 12.79601074 -116.55639648 12.50390625 C-115.64374023 12.20605225 -114.73108398 11.90819824 -113.79077148 11.60131836 C-112.83557617 11.28864014 -111.88038086 10.97596191 -110.89624023 10.65380859 C-95.58990135 5.7119825 -80.05685959 2.14860346 -64.35327148 -1.27368164 C-63.5555835 -1.44825897 -62.75789551 -1.6228363 -61.93603516 -1.80270386 C-20.11823789 -10.92118143 -20.11823789 -10.92118143 0 0 Z " fill="#FAFDFE" transform="translate(765.228271484375,317.086181640625)"/>
<path d="M0 0 C0.78672089 -0.00067474 1.57344177 -0.00134949 2.38400269 -0.00204468 C34.07920952 0.04057729 70.34298739 0.80982877 99.9375 13.25 C100.2675 13.91 100.5975 14.57 100.9375 15.25 C100.21707016 15.26030746 99.49664032 15.27061493 98.75437927 15.28123474 C91.80325593 15.38118732 84.85217918 15.48389309 77.90113735 15.58933926 C74.33165266 15.64340007 70.76216041 15.69656677 67.19262695 15.74731445 C52.54692716 15.95628137 37.9029896 16.20196773 23.26228523 16.64705086 C21.36750154 16.70453313 19.47262367 16.75888525 17.57774353 16.81309509 C-26.3412776 18.23855825 -67.59902783 27.87219248 -104.17919922 52.98339844 C-107.41739759 55.16122747 -110.73962351 57.20456427 -114.0625 59.25 C-108.7482928 40.66376262 -87.25258681 27.56395745 -71.328125 18.5703125 C-55.69958695 9.96543993 -39.6542059 4.295114 -22.0625 1.25 C-21.15129395 1.07726562 -20.24008789 0.90453125 -19.30126953 0.7265625 C-12.92377748 -0.21184128 -6.43629616 0.00495184 0 0 Z " fill="#F9FCFE" transform="translate(329.0625,288.75)"/>
<path d="M0 0 C0.76635773 -0.00117828 1.53271545 -0.00235657 2.32229614 -0.00357056 C28.57326317 0.00101785 28.57326317 0.00101785 39.3125 4.1875 C36.90910493 6.59089507 35.0468765 7.12920697 31.83496094 8.23120117 C30.68485535 8.62889206 29.53474976 9.02658295 28.34979248 9.43632507 C27.08221815 9.86789677 25.81457708 10.29927246 24.546875 10.73046875 C23.23465103 11.18122608 21.92258083 11.6324313 20.61065674 12.08406067 C17.84436166 13.03499269 15.07676662 13.98200488 12.30810547 14.92602539 C8.82806867 16.11268969 5.35049913 17.30637849 1.87377167 18.5026989 C-10.90328914 22.89813625 -23.69481786 27.25393286 -36.546875 31.42578125 C-37.91238495 31.87681465 -37.91238495 31.87681465 -39.30548096 32.33695984 C-40.53823761 32.73151115 -40.53823761 32.73151115 -41.79589844 33.1340332 C-42.5050238 33.36371292 -43.21414917 33.59339264 -43.94476318 33.83003235 C-45.6875 34.1875 -45.6875 34.1875 -47.6875 33.1875 C-44.02832204 30.03417352 -40.44596778 27.94990177 -36.05859375 25.9453125 C-35.42824722 25.6544577 -34.7979007 25.36360291 -34.14845276 25.06393433 C-32.1435805 24.1402072 -30.13458383 23.22592519 -28.125 22.3125 C-25.49732595 21.10974823 -22.87144705 19.90312046 -20.24609375 18.6953125 C-19.60908539 18.40295715 -18.97207703 18.11060181 -18.31576538 17.80938721 C-12.37097023 15.06879848 -6.52369107 12.15236248 -0.6875 9.1875 C-11.08272202 9.04266892 -21.39749192 9.50098676 -31.7734375 10.0625 C-33.48684904 10.15252858 -35.20027923 10.24220287 -36.91372681 10.33154297 C-41.38595728 10.56542724 -45.8579822 10.80301273 -50.32995605 11.04174805 C-57.50622727 11.42452526 -64.68272604 11.80293072 -71.85936356 12.17877197 C-74.35151623 12.31002875 -76.84353031 12.44371074 -79.33554077 12.57763672 C-80.87001087 12.65861569 -82.40448534 12.739512 -83.93896484 12.8203125 C-84.62273193 12.85771545 -85.30649902 12.89511841 -86.01098633 12.93365479 C-90.24093104 13.15364693 -94.4522334 13.21972984 -98.6875 13.1875 C-95.41400348 11.00516899 -92.38341738 10.14697623 -88.625 9.2265625 C-87.91964111 9.05275055 -87.21428223 8.8789386 -86.48754883 8.69985962 C-78.30004227 6.75790199 -70.02705572 5.62418872 -61.6875 4.5625 C-60.87813995 4.45733063 -60.06877991 4.35216125 -59.2348938 4.24380493 C-53.72257921 3.52852527 -48.20681811 2.84641979 -42.6875 2.1875 C-41.54651855 2.05037598 -40.40553711 1.91325195 -39.22998047 1.77197266 C-26.16324195 0.27167831 -13.13778122 0.01550663 0 0 Z " fill="#F3FAFD" transform="translate(736.6875,336.8125)"/>
<path d="M0 0 C0.66 0.33 1.32 0.66 2 1 C1.175 1.7425 0.35 2.485 -0.5 3.25 C-3.79669388 7.2041542 -3.64418778 11.10860127 -3.421875 16.0859375 C-2.67156073 21.26866382 -0.7886032 24.319797 3.0625 27.9375 C8.75667339 29.99709463 14.61608842 29.70634417 20.375 28 C24.60895087 24.77413267 27.33031323 21.05139535 28.484375 15.79296875 C28.87920705 9.53049379 26.38636142 5.11582458 23 0 C29.89010284 0.51675771 34.71849663 3.71849663 39.5 8.5 C42.17849603 14.74982407 42.10515211 21.32295012 40.15234375 27.8203125 C36.81015478 35.22977551 31.677233 39.72011554 24.875 43.9375 C18.20230528 46.3918245 9.07502976 46.36195155 2.5625 43.5 C-4.5062316 39.18610598 -9.88708701 31.98906153 -12 24 C-12.70224577 18.38927351 -12.81556286 13.72522913 -10.375 8.5625 C-7.27435954 5.21707213 -4.12423302 2.06211651 0 0 Z " fill="#0697DA" transform="translate(611,247)"/>
<path d="M0 0 C0.99386719 0.00902344 1.98773437 0.01804688 3.01171875 0.02734375 C4.15060547 0.04474609 4.15060547 0.04474609 5.3125 0.0625 C5.14618789 6.54867211 1.62376973 10.5737509 -2.6875 15.0625 C-9.69990189 21.19710478 -17.02343676 25.66850672 -25.6875 29.0625 C-25.2802364 20.10270073 -20.51229693 11.70962121 -14.6875 5.0625 C-9.62289061 1.34156249 -6.2478146 -0.0735037 0 0 Z " fill="#F6FBFD" transform="translate(797.6875,240.9375)"/>
<path d="M0 0 C-9.405 0.495 -9.405 0.495 -19 1 C-16.13771795 -0.43114103 -14.00359672 -1.40726882 -11 -2.1875 C-10.34 -2.36667969 -9.68 -2.54585938 -9 -2.73046875 C-5.19249891 -3.24358901 -3.1676898 -2.1117932 0 0 Z " fill="#CDEAF7" transform="translate(759,360)"/>
<path d="M0 0 C0 0.66 0 1.32 0 2 C-1.41377782 2.36552803 -2.83120576 2.71695495 -4.25 3.0625 C-5.03890625 3.25972656 -5.8278125 3.45695313 -6.640625 3.66015625 C-9.10394822 4.01497267 -10.65604132 3.76877544 -13 3 C-11.40084119 2.30093058 -9.79544955 1.61610532 -8.1875 0.9375 C-7.29417969 0.55464844 -6.40085937 0.17179688 -5.48046875 -0.22265625 C-3 -1 -3 -1 0 0 Z " fill="#B9E2F4" transform="translate(484,252)"/>
<path d="M0 0 C4.51617599 -0.07654536 8.59085217 -0.10228696 13 1 C10 3 10 3 7.51953125 2.7578125 C6.62621094 2.54898438 5.73289062 2.34015625 4.8125 2.125 C3.91144531 1.92132813 3.01039063 1.71765625 2.08203125 1.5078125 C1.39496094 1.34023437 0.70789063 1.17265625 0 1 C0 0.67 0 0.34 0 0 Z " fill="#ADDDF3" transform="translate(554,207)"/>
<path d="M0 0 C0.33 0 0.66 0 1 0 C0.67 2.97 0.34 5.94 0 9 C-0.99 8.34 -1.98 7.68 -3 7 C-1.125 1.125 -1.125 1.125 0 0 Z " fill="#CBE9F7" transform="translate(653,475)"/>
<path d="M0 0 C-3.6441774 2.4294516 -5.71241272 2.16179575 -10 2 C-6.19832777 -0.53444815 -4.31588991 -1.33941411 0 0 Z " fill="#C2E5F6" transform="translate(648,348)"/>
</svg>
